<svg xmlns="http://www.w3.org/2000/svg" viewBox="0 0 1200 800">
  <defs>
    <linearGradient id="bg" x1="0" y1="0" x2="1" y2="1"><stop stop-color="#2b1b15"/><stop offset="1" stop-color="#100b09"/></linearGradient>
    <linearGradient id="gold" x1="0" y1="0" x2="1" y2="1"><stop stop-color="#f9df9b"/><stop offset="1" stop-color="#bd8038"/></linearGradient>
  </defs>
  <rect width="1200" height="800" fill="url(#bg)"/>
  <circle cx="1060" cy="90" r="260" fill="#d49a4f" opacity=".12"/>
  <rect x="110" y="120" width="980" height="560" rx="30" fill="#f7efe1"/>
  <rect x="110" y="120" width="350" height="560" rx="30" fill="#251713"/>
  <circle cx="285" cy="275" r="90" fill="none" stroke="url(#gold)" stroke-width="9"/>
  <path d="M245 300l42-90 43 90z" fill="url(#gold)"/>
  <rect x="205" y="400" width="160" height="18" rx="9" fill="#edd39a"/>
  <rect x="190" y="435" width="190" height="12" rx="6" fill="#8f6a52"/>
  <rect x="530" y="215" width="420" height="34" rx="17" fill="#2c1c17"/>
  <rect x="530" y="280" width="330" height="18" rx="9" fill="#ba8b65"/>
  <rect x="530" y="325" width="460" height="18" rx="9" fill="#d9c5ad"/>
  <rect x="530" y="370" width="400" height="18" rx="9" fill="#d9c5ad"/>
  <rect x="530" y="440" width="210" height="110" rx="18" fill="#e5cfb1"/>
  <rect x="770" y="440" width="220" height="110" rx="18" fill="#d9b878"/>
  <text x="600" y="735" text-anchor="middle" font-family="Arial,sans-serif" font-size="34" font-weight="700" fill="#f5dfaa">PRESENTATION DESIGN</text>
</svg>
